<svg xmlns="http://www.w3.org/2000/svg" fill="none" viewBox="0 0 480 60"><path fill="#000" d="m0 27 33 33V27zM103.192 0 77.988 25.078 52.803 0H46v60h12.802V24.359l19.196 19.108 19.2-19.108V60H110V0zM126 0v60h59V47.975h-46.052V34.291h28.591V22.265h-28.591v-9.894h43.558V0zm121.459 17.633a4.85 4.85 0 0 0-1.653-3.965 10.1 10.1 0 0 0-5.62-1.32h-27.458v11.043h27.458c2.645 0 4.467-.484 5.62-1.484a6.64 6.64 0 0 0 1.653-4.284M264 59.971h-14.385l-15.878-24.532h-21.009V60H200V0h40.351c5.959 0 10.586 1.484 14.225 4.284q5.96 4.694 5.96 13.349a18.13 18.13 0 0 1-3.314 10.554 18.4 18.4 0 0 1-9.095 6.595zM319.954 0l-26.89 22.427V0H280v60h13.035V37.742L302.226 30l22.559 30H340l-28.406-37.921L337.991 0zM354 0v60h54V47.975h-41.161V0zm68 0v60h58V47.975h-45.417v-13.68h28.085V22.27h-28.085v-9.899h42.952V0z"/></svg>
